<?xml version="1.0" encoding="utf-8"?>
<!-- Generator: Adobe Illustrator 23.0.2, SVG Export Plug-In . SVG Version: 6.00 Build 0)  -->
<svg version="1.1" id="Layer_1" xmlns="http://www.w3.org/2000/svg" xmlns:xlink="http://www.w3.org/1999/xlink" x="0px" y="0px"
	 viewBox="0 0 71 38" style="enable-background:new 0 0 71 38;" xml:space="preserve">
<style type="text/css">
	.st0{fill:#555555;}
</style>
<g>
	<path class="st0" d="M5.7,10.3c-0.5-0.3-1.1-0.1-1.4,0.4C4.1,11,4,11.3,3.8,11.6c-0.2,0.5,0,1.1,0.5,1.3C4.4,13,4.6,13,4.7,13
		c0.4,0,0.7-0.2,0.9-0.6c0.1-0.3,0.3-0.6,0.4-0.8C6.3,11.2,6.1,10.5,5.7,10.3z"/>
	<path class="st0" d="M22,4.5c0.3,0.1,0.6,0.1,0.9,0.2c0.1,0,0.2,0,0.3,0c0.4,0,0.8-0.3,1-0.7c0.1-0.5-0.2-1-0.7-1.2
		c-0.3-0.1-0.7-0.2-1-0.3c-0.5-0.1-1.1,0.2-1.2,0.8C21.1,3.9,21.5,4.4,22,4.5z"/>
	<path class="st0" d="M9,29.6c-0.4-0.4-1-0.3-1.4,0.1s-0.3,1,0.1,1.4c0.3,0.2,0.5,0.5,0.8,0.7C8.6,31.9,8.9,32,9.1,32
		c0.3,0,0.6-0.1,0.8-0.4c0.3-0.4,0.3-1.1-0.2-1.4C9.5,30,9.2,29.8,9,29.6z"/>
	<path class="st0" d="M5.3,24.3c-0.2-0.5-0.8-0.8-1.3-0.6C3.4,24,3.2,24.5,3.4,25c0.1,0.3,0.3,0.7,0.4,1c0.2,0.4,0.5,0.6,0.9,0.6
		c0.1,0,0.3,0,0.4-0.1c0.5-0.2,0.7-0.8,0.5-1.3C5.5,24.9,5.4,24.6,5.3,24.3z"/>
	<path class="st0" d="M9.2,5.2C9,5.4,8.7,5.6,8.4,5.8C8,6.2,7.9,6.8,8.2,7.2C8.4,7.5,8.7,7.6,9,7.6c0.2,0,0.4-0.1,0.6-0.2
		c0.2-0.2,0.5-0.4,0.7-0.6c0.5-0.3,0.6-0.9,0.2-1.4C10.3,5,9.7,4.9,9.2,5.2z"/>
	<path class="st0" d="M4.2,18.8c0-0.3,0-0.6,0-0.9c0-0.6-0.4-1-0.9-1.1c-0.6,0-1,0.4-1.1,0.9c0,0.3,0,0.7,0,1l0,0c0,0.6,0.4,1,1,1
		S4.2,19.3,4.2,18.8z"/>
	<path class="st0" d="M22.1,33c-0.3,0.1-0.6,0.1-0.9,0.2c-0.5,0.1-0.9,0.6-0.8,1.1s0.5,0.8,1,0.8c0.1,0,0.1,0,0.2,0
		c0.4-0.1,0.7-0.1,1-0.2c0.5-0.1,0.9-0.7,0.8-1.2C23.1,33.2,22.6,32.9,22.1,33z"/>
	<path class="st0" d="M15.6,33c-0.3-0.1-0.6-0.1-0.9-0.2c-0.5-0.2-1.1,0.1-1.2,0.7c-0.2,0.5,0.1,1.1,0.7,1.2c0.3,0.1,0.7,0.2,1,0.3
		c0.1,0,0.1,0,0.2,0c0.5,0,0.9-0.3,1-0.8C16.4,33.7,16.1,33.2,15.6,33z"/>
	<path class="st0" d="M16.1,2.4c-0.4,0.1-0.7,0.1-1,0.2c-0.5,0.1-0.9,0.7-0.7,1.2c0.1,0.5,0.5,0.8,1,0.8c0.1,0,0.2,0,0.2,0
		c0.3-0.1,0.6-0.1,0.9-0.2c0.5-0.1,0.9-0.6,0.8-1.1C17.2,2.7,16.6,2.3,16.1,2.4z"/>
	<path class="st0" d="M35.3,33.2c-8,0-14.5-6.5-14.5-14.5S27.3,4.3,35.3,4.3c1.5,0,2.9,0.2,4.3,0.6c0.6-0.5,1.2-1,1.8-1.5
		c-1.9-0.8-4-1.2-6.1-1.2c-9.1,0-16.5,7.4-16.5,16.5s7.4,16.5,16.5,16.5c2.2,0,4.2-0.4,6.1-1.2c-0.7-0.4-1.3-0.9-1.8-1.5
		C38.2,33,36.7,33.2,35.3,33.2z"/>
	<circle class="st0" cx="51.7" cy="18.8" r="16.5"/>
</g>
</svg>
