<?xml version="1.0" encoding="utf-8"?>
<!-- Generator: Adobe Illustrator 23.0.2, SVG Export Plug-In . SVG Version: 6.00 Build 0)  -->
<svg version="1.1" id="Layer_1" xmlns="http://www.w3.org/2000/svg" xmlns:xlink="http://www.w3.org/1999/xlink" x="0px" y="0px"
	 viewBox="0 0 50 50" style="enable-background:new 0 0 50 50;" xml:space="preserve">
<style type="text/css">
	.st0{fill:#555555;}
</style>
<g>
	<path class="st0" d="M25,12.1c-7.1,0-12.9,5.8-12.9,12.9c0,7.1,5.8,12.9,12.9,12.9c7.1,0,12.9-5.8,12.9-12.9
		C37.9,17.9,32.1,12.1,25,12.1z M25,35.9c-6,0-10.9-4.9-10.9-10.9S19,14.1,25,14.1S35.9,19,35.9,25S31,35.9,25,35.9z"/>
	<path class="st0" d="M25,9.9c0.6,0,1-0.4,1-1V4c0-0.6-0.4-1-1-1s-1,0.4-1,1v4.9C24,9.5,24.4,9.9,25,9.9z"/>
	<path class="st0" d="M12.9,14.3c0.2,0.2,0.5,0.3,0.7,0.3s0.5-0.1,0.7-0.3c0.4-0.4,0.4-1,0-1.4l-3.5-3.5c-0.4-0.4-1-0.4-1.4,0
		s-0.4,1,0,1.4L12.9,14.3z"/>
	<path class="st0" d="M9.9,25c0-0.6-0.4-1-1-1H4c-0.6,0-1,0.4-1,1s0.4,1,1,1h4.9C9.5,26,9.9,25.6,9.9,25z"/>
	<path class="st0" d="M12.9,35.7l-3.5,3.5c-0.4,0.4-0.4,1,0,1.4c0.2,0.2,0.5,0.3,0.7,0.3s0.5-0.1,0.7-0.3l3.5-3.5
		c0.4-0.4,0.4-1,0-1.4S13.3,35.3,12.9,35.7z"/>
	<path class="st0" d="M25,40.1c-0.6,0-1,0.4-1,1V46c0,0.6,0.4,1,1,1s1-0.4,1-1v-4.9C26,40.5,25.6,40.1,25,40.1z"/>
	<path class="st0" d="M37.1,35.7c-0.4-0.4-1-0.4-1.4,0s-0.4,1,0,1.4l3.5,3.5c0.2,0.2,0.5,0.3,0.7,0.3s0.5-0.1,0.7-0.3
		c0.4-0.4,0.4-1,0-1.4L37.1,35.7z"/>
	<path class="st0" d="M46,24h-4.9c-0.6,0-1,0.4-1,1s0.4,1,1,1H46c0.6,0,1-0.4,1-1S46.6,24,46,24z"/>
	<path class="st0" d="M36.4,14.6c0.3,0,0.5-0.1,0.7-0.3l3.5-3.5c0.4-0.4,0.4-1,0-1.4s-1-0.4-1.4,0l-3.5,3.5c-0.4,0.4-0.4,1,0,1.4
		C35.8,14.5,36.1,14.6,36.4,14.6z"/>
</g>
</svg>
