<?xml version="1.0" encoding="utf-8"?>
<!-- Generator: Adobe Illustrator 23.0.2, SVG Export Plug-In . SVG Version: 6.00 Build 0)  -->
<svg version="1.1" id="Layer_1" xmlns="http://www.w3.org/2000/svg" xmlns:xlink="http://www.w3.org/1999/xlink" x="0px" y="0px"
	 viewBox="0 0 50 50" style="enable-background:new 0 0 50 50;" xml:space="preserve">
<style type="text/css">
	.st0{fill:#555555;}
</style>
<path class="st0" d="M25.8,45.3C14.3,45.3,5,36,5,24.5C5,14.4,12.2,5.8,22.2,4c0.4-0.1,0.8,0.1,1,0.5s0.2,0.8-0.1,1.1
	c-2.7,3-4.1,6.9-4.1,11c0,9.2,7.5,16.7,16.7,16.7c2.7,0,5.5-0.7,7.9-2c0.4-0.2,0.8-0.1,1.1,0.1c0.3,0.3,0.4,0.7,0.2,1.1
	C41.7,40.3,34.2,45.3,25.8,45.3z M19.9,6.6C12.3,9.2,7,16.3,7,24.5c0,10.4,8.4,18.8,18.8,18.8c6.6,0,12.7-3.5,16.1-9
	c-2,0.7-4.1,1.1-6.2,1.1C25.3,35.3,17,26.9,17,16.6C17,13.1,18,9.6,19.9,6.6z"/>
</svg>
