<svg xmlns="http://www.w3.org/2000/svg" viewBox="0 0 576 361.1"><defs><style>.cls-1{fill:#fff;}</style></defs><g id="Layer_2" data-name="Layer 2"><g id="Layer_1-2" data-name="Layer 1"><path class="cls-1" d="M232,161.8c31.8-15.2,48.4-38.2,48.4-74C280.4,17.2,227.8,0,167.1,0H0V354.4H171.8c64.4,0,124.9-30.9,124.9-102.9,0-44.5-21.1-77.4-64.7-89.7ZM77.9,60.5H151c28.1,0,53.4,7.9,53.4,40.5,0,30.1-19.7,42.2-47.5,42.2h-79Zm83.3,233.7H77.9V196.6h84.9c34.3,0,56,14.3,56,50.6,0,35.8-25.9,47-57.6,47ZM519.7,53.5H376V18.6H519.7V53.5ZM576,229.8c0-75.9-44.4-139.2-124.9-139.2-78.2,0-131.3,58.8-131.3,135.8,0,79.9,50.3,134.7,131.3,134.7,61.3,0,101-27.6,120.1-86.3H509c-6.7,21.9-34.3,33.5-55.7,33.5-41.3,0-63-24.2-63-65.3H575.4C575.7,238.8,576,234.3,576,229.8ZM390.4,198.6c2.3-33.7,24.7-54.8,58.5-54.8,35.4,0,53.2,20.8,56.2,54.8Z"/></g></g></svg>