<svg xmlns="http://www.w3.org/2000/svg" viewBox="0 0 91.67 91.67"><defs><style>.cls-1{fill:#fff;}</style></defs><g id="Layer_2" data-name="Layer 2"><g id="Layer_1-2" data-name="Layer 1"><path class="cls-1" d="M45.83,0A45.84,45.84,0,1,0,91.67,45.83,45.88,45.88,0,0,0,45.83,0Zm29.8,23.1a37.29,37.29,0,0,1,7.66,21.19,73.62,73.62,0,0,0-25.76-1.23c-.83-2-1.71-3.92-2.62-5.84A63.91,63.91,0,0,0,75.63,23.1Zm-5.76-6A55,55,0,0,1,51.08,29.76,217.52,217.52,0,0,0,38,9.17a37.8,37.8,0,0,1,7.87-.84A37.32,37.32,0,0,1,69.87,17.08ZM29.73,12a222.49,222.49,0,0,1,13.4,20.54c-9.17,2.63-20.2,4.08-33.76,4.6A37.61,37.61,0,0,1,29.73,12ZM8.33,45.83c0-.11,0-.22,0-.33,14.42-.48,27.34-1.89,38.74-5.41.76,1.58,1.49,3.18,2.2,4.83-.5.15-1,.32-1.47.49-11.13,4-21.17,12-30.62,24.59A37.34,37.34,0,0,1,8.33,45.83ZM23.27,75.77c8.62-11.66,17.58-19,27.33-22.51.58-.21,1.17-.4,1.76-.58a262.66,262.66,0,0,1,8.12,27.67,37.46,37.46,0,0,1-37.21-4.58ZM68,76.05a259.68,259.68,0,0,0-7.36-25,67.53,67.53,0,0,1,22,1.64A37.5,37.5,0,0,1,68,76.05Z"/></g></g></svg>