<svg xmlns="http://www.w3.org/2000/svg" viewBox="0 0 246.15 200.01"><g id="Layer_2" data-name="Layer 2"><g id="Logo"><g id="Logo-2" data-name="Logo"><path id="white_background" data-name="white background" d="M221,49.79c.15,2.17.15,4.34.15,6.53C221.1,123.05,170.3,200,77.41,200v0A143,143,0,0,1,0,177.33a102.73,102.73,0,0,0,12,.73A101.41,101.41,0,0,0,74.74,156.4a50.56,50.56,0,0,1-47.18-35.07,50.34,50.34,0,0,0,22.8-.87A50.51,50.51,0,0,1,9.85,71v-.64a50.18,50.18,0,0,0,22.92,6.32A50.56,50.56,0,0,1,17.14,9.21,143.33,143.33,0,0,0,121.22,62a50.55,50.55,0,0,1,86.06-46.06A101.34,101.34,0,0,0,239.35,3.65a50.69,50.69,0,0,1-22.2,27.93,100.43,100.43,0,0,0,29-7.95A102.59,102.59,0,0,1,221,49.79Z"/></g></g></g></svg>