<?xml version="1.0" encoding="utf-8"?>
<!-- Generator: Adobe Illustrator 26.5.0, SVG Export Plug-In . SVG Version: 6.00 Build 0)  -->
<svg version="1.1" id="Layer_1" xmlns="http://www.w3.org/2000/svg" xmlns:xlink="http://www.w3.org/1999/xlink" x="0px" y="0px"
	 viewBox="0 0 631.7 701.7" style="enable-background:new 0 0 631.7 701.7;" xml:space="preserve">
<style type="text/css">
	.st0{fill:#191919;}
</style>
<g id="Layer_2_00000124877826737032619200000000206511579250637963_">
	<g id="Final_option">
		<path class="st0" d="M588.9,411.1c-20.4-11.8-46.8-11-72.7-7.6c-47.8,6.2-71.5,2.9-94.2-10.2c-11.5-6.7-27.4-19.4-27.3-42.5
			c-0.1-23.1,15.7-35.8,27.3-42.5c22.7-13.1,46.4-16.5,94.2-10.2c25.9,3.4,52.3,4.2,72.7-7.6c40.4-22.8,54.6-74,31.8-114.3
			s-74-54.6-114.3-31.8c-0.5,0.3-0.9,0.5-1.4,0.8c-20.4,11.8-32.9,35-43,59.2c-18.5,44.5-33.3,63.3-56,76.4
			c-11.5,6.7-30.5,14.1-50.4,2.4c-20.1-11.4-23.2-31.5-23.2-44.9c0-26.2,9-48.4,38.2-86.7c15.9-20.8,29.8-43.2,29.8-66.8
			c0.5-46.3-36.6-84.3-83-84.8s-84.3,36.6-84.8,83c0,0.6,0,1.2,0,1.8c0,23.6,13.9,46,29.8,66.8c29.3,38.2,38.2,60.5,38.2,86.7
			c0,13.3-3.1,33.4-23.1,44.9c-19.9,11.7-38.9,4.3-50.4-2.4c-22.7-13.1-37.5-32-56-76.4c-10-24.2-22.5-47.4-43-59.2
			C88.7,120.8,37,133,12.6,172.4S0.4,263.5,39.8,287.8c1.5,0.9,3,1.8,4.6,2.6c20.4,11.8,46.8,11,72.7,7.6
			c47.8-6.2,71.5-2.9,94.2,10.2c11.5,6.7,27.4,19.4,27.3,42.5c0.1,23.1-15.7,35.8-27.3,42.5c-22.7,13.1-46.4,16.5-94.2,10.2
			c-25.9-3.4-52.3-4.2-72.7,7.6C4.2,434.3-9.5,485.6,13.7,525.8c23.2,40.1,74.5,53.9,114.6,30.7l0,0c20.4-11.8,32.9-35,43-59.2
			c18.5-44.5,33.3-63.3,56-76.4c11.5-6.7,30.5-14.1,50.4-2.4c20.1,11.4,23.1,31.5,23.1,44.9c0,26.2-8.9,48.4-38.2,86.7
			c-16,20.8-29.9,43.2-29.9,66.8c-0.5,46.3,36.6,84.3,83,84.8s84.3-36.6,84.8-83c0-0.6,0-1.2,0-1.8c0-23.6-13.9-46-29.8-66.8
			c-29.3-38.2-38.2-60.5-38.2-86.7c0-13.3,3.1-33.4,23.2-44.9c19.9-11.7,38.9-4.3,50.4,2.4c22.7,13.1,37.5,32,56,76.4
			c10,24.2,22.5,47.4,43,59.2c39.9,23.6,91.3,10.3,114.9-29.6s10.3-91.3-29.6-114.9C589.9,411.7,589.5,411.4,588.9,411.1
			L588.9,411.1z"/>
	</g>
</g>
</svg>
